HIERARCHY
ROOT Pelvis
{
	OFFSET 0.000000 0.000000 0.000000
	CHANNELS 6 Xposition Yposition Zposition Xrotation Yrotation Zrotation
	JOINT LeftUpLeg_virtual
	{
		OFFSET 0.000000 0.000000 0.000000
		CHANNELS 3 Xrotation Yrotation Zrotation
		JOINT LeftUpLeg
		{
			OFFSET 18.735201 -5.666702 -4.541200
			CHANNELS 3 Xrotation Yrotation Zrotation
			JOINT LeftLeg
			{
				OFFSET -0.021200 -31.938179 0.493100
				CHANNELS 3 Xrotation Yrotation Zrotation
				JOINT LeftFoot
				{
					OFFSET 0.021200 -31.938179 -4.336299
					CHANNELS 3 Xrotation Yrotation Zrotation
					JOINT LeftToeBase
					{
						OFFSET 0.943001 -26.722000 15.023500
						CHANNELS 3 Xrotation Yrotation Zrotation
						End Site
						{
							OFFSET 0 0 0
						}
					}
				}
			}
		}
	}
	JOINT RightUpLeg_virtual
	{
		OFFSET 0.000000 0.000000 0.000000
		CHANNELS 3 Xrotation Yrotation Zrotation
		JOINT RightUpLeg
		{
			OFFSET -18.735201 -5.666702 -4.541200
			CHANNELS 3 Xrotation Yrotation Zrotation
			JOINT RightLeg
			{
				OFFSET 0.018946 -31.938133 0.493100
				CHANNELS 3 Xrotation Yrotation Zrotation
				JOINT RightFoot
				{
					OFFSET -0.018946 -31.938126 -4.336299
					CHANNELS 3 Xrotation Yrotation Zrotation
					JOINT RightToeBase
					{
						OFFSET -0.943001 -26.722004 15.023500
						CHANNELS 3 Xrotation Yrotation Zrotation
						End Site
						{
							OFFSET 0 0 0
						}
					}
				}
			}
		}
	}
	JOINT Hips_virtual
	{
		OFFSET 0.000000 0.000000 0.000000
		CHANNELS 3 Xrotation Yrotation Zrotation
		JOINT Hips
		{
			OFFSET -0.000000 -0.000000 -0.000000
			CHANNELS 3 Xrotation Yrotation Zrotation
			JOINT Spine
			{
				OFFSET 0.000000 10.199997 -0.299500
				CHANNELS 3 Xrotation Yrotation Zrotation
				JOINT Spine1
				{
					OFFSET 0.000000 11.900002 -1.516600
					CHANNELS 3 Xrotation Yrotation Zrotation
					JOINT Spine2
					{
						OFFSET 0.000000 13.600006 -2.842500
						CHANNELS 3 Xrotation Yrotation Zrotation
						JOINT Neck_virtual
						{
							OFFSET 0.000000 0.000000 0.000000
							CHANNELS 3 Xrotation Yrotation Zrotation
							JOINT Neck
							{
								OFFSET 0.000000 9.624100 -2.890100
								CHANNELS 3 Xrotation Yrotation Zrotation
								JOINT Head
								{
									OFFSET 0.000000 14.068802 -1.351900
									CHANNELS 3 Xrotation Yrotation Zrotation
									End Site
									{
										OFFSET 0 0 0
									}
								}
							}
						}
						JOINT LeftShoulder_virtual
						{
							OFFSET 0.000000 0.000000 0.000000
							CHANNELS 3 Xrotation Yrotation Zrotation
							JOINT LeftShoulder
							{
								OFFSET 15.263000 10.923401 -0.547700
								CHANNELS 3 Xrotation Yrotation Zrotation
								JOINT LeftArm
								{
									OFFSET 25.438599 -2.830597 -13.032500
									CHANNELS 3 Xrotation Yrotation Zrotation
									JOINT LeftForeArm
									{
										OFFSET 29.960503 0.000000 0.000000
										CHANNELS 3 Xrotation Yrotation Zrotation
										JOINT LeftHand
										{
											OFFSET 27.849251 0.000000 0.000000
											CHANNELS 3 Xrotation Yrotation Zrotation
											End Site
											{
												OFFSET 0 0 0
											}
										}
									}
								}
							}
						}
						JOINT RightShoulder_virtual
						{
							OFFSET 0.000000 0.000000 0.000000
							CHANNELS 3 Xrotation Yrotation Zrotation
							JOINT RightShoulder
							{
								OFFSET -15.263000 10.923401 -0.547700
								CHANNELS 3 Xrotation Yrotation Zrotation
								JOINT RightArm
								{
									OFFSET -25.438599 -2.830597 -13.032500
									CHANNELS 3 Xrotation Yrotation Zrotation
									JOINT RightForeArm
									{
										OFFSET -29.960503 0.000000 0.000000
										CHANNELS 3 Xrotation Yrotation Zrotation
										JOINT RightHand
										{
											OFFSET -27.849251 0.000000 0.000000
											CHANNELS 3 Xrotation Yrotation Zrotation
											End Site
											{
												OFFSET 0 0 0
											}
										}
									}
								}
							}
						}
					}
				}
			}
		}
	}
}
MOTION
Frames: 13
Frame Time: 0.03333333
-0.017622 87.444176 4.642540 0.000000 0.000000 0.000000 22.697017 0.067172 -6.345463 -66.720081 2.163027 -4.229414 72.648501 -2.340054 3.388646 14.729279 2.329873 6.579300 0.000000 0.000000 0.000000 22.697017 0.067172 -6.345463 -31.958995 -11.564126 -0.180915 34.192521 -3.515245 2.562842 -23.823377 -1.710170 4.871233 0.000000 0.000000 0.000000 22.697017 0.067172 -6.345463 0.000001 0.000000 0.000000 8.976102 2.773651 -0.064053 -0.486220 1.376180 -0.738724 0.000000 0.000000 0.000000 -0.484352 1.393122 -0.752145 -4.866360 0.370725 0.352193 0.000000 0.000000 0.000000 -0.484352 1.393122 -0.752145 0.800075 -1.053362 -19.763347 13.552898 -1.213089 -48.473030 -0.000000 -65.396835 -0.000005 0.000000 0.000000 0.000000 -0.484352 1.393122 -0.752145 0.203553 7.873811 19.585053 11.893547 -9.449218 48.231627 -0.000001 63.147004 0.000019 0.000000 0.000000 0.000000 
-0.592016 87.200966 6.752487 0.000000 0.000000 0.000000 23.011515 0.125011 -6.066567 -70.242034 3.114566 -4.602864 73.252085 -3.286829 3.415150 12.009349 3.008365 6.020155 0.000000 0.000000 0.000000 23.011515 0.125011 -6.066567 -29.888225 -11.588033 0.290408 33.605596 -3.471674 2.420314 -25.707743 -1.766771 4.776551 0.000000 0.000000 0.000000 23.011515 0.125011 -6.066567 0.000002 0.000000 0.000000 8.756983 2.917221 -0.495029 -0.496564 1.450543 -0.731987 0.000000 0.000000 0.000000 -0.477003 1.478104 -0.752148 -4.887624 0.324919 0.370692 0.000000 0.000000 0.000000 -0.477003 1.478104 -0.752148 0.809865 -1.055533 -19.698330 13.400045 -1.470151 -48.429368 -0.000004 -65.609281 -0.000013 0.000000 0.000000 0.000000 -0.477003 1.478104 -0.752148 0.179715 8.056688 19.469473 11.883970 -9.750498 48.141024 0.000000 64.191457 0.000022 0.000000 0.000000 0.000000 
-1.162322 86.927330 8.828232 0.000000 0.000000 0.000000 23.327995 0.178358 -5.797382 -73.432846 4.063701 -4.922327 73.305415 -4.305058 3.439533 9.490497 3.785126 5.507405 0.000000 0.000000 0.000000 23.327995 0.178358 -5.797382 -27.709219 -11.758304 0.815661 32.758926 -3.347248 2.156448 -27.472576 -1.801383 4.670236 0.000000 0.000000 0.000000 23.327995 0.178358 -5.797382 0.000000 0.000000 0.000000 8.539456 3.066756 -0.916793 -0.507233 1.525119 -0.724556 0.000000 0.000000 0.000000 -0.469548 1.563696 -0.748853 -4.908796 0.278932 0.389231 0.000000 0.000000 0.000000 -0.469548 1.563696 -0.748853 0.829645 -1.055380 -19.576804 13.303896 -1.693180 -48.524331 -0.000009 -65.794311 -0.000027 0.000000 0.000000 0.000000 -0.469548 1.563696 -0.748853 0.162750 8.201806 19.240260 12.013094 -10.084080 48.107430 -0.000010 65.513235 0.000002 0.000000 0.000000 0.000000 
-1.733138 86.567879 10.889135 0.000000 0.000000 0.000000 23.670082 0.206868 -5.531980 -76.398521 4.916885 -5.188038 72.854042 -5.352251 3.423995 7.118522 4.719824 4.983154 0.000000 0.000000 0.000000 23.670082 0.206868 -5.531980 -25.553425 -12.032900 1.349250 31.900539 -3.117719 1.823457 -29.232308 -1.825384 4.568913 0.000000 0.000000 0.000000 23.670082 0.206868 -5.531980 -0.000002 0.000000 0.000000 8.315746 3.226524 -1.328042 -0.520800 1.601805 -0.710189 0.000000 0.000000 0.000000 -0.460740 1.655480 -0.739870 -4.930132 0.231077 0.407897 0.000000 0.000000 0.000000 -0.460740 1.655480 -0.739870 0.857946 -1.055084 -19.402792 13.266433 -1.833224 -48.691633 0.000017 -65.913839 0.000028 0.000000 0.000000 0.000000 -0.460740 1.655480 -0.739870 0.154750 8.315187 18.934697 12.291672 -10.409283 48.204374 0.000032 66.924461 -0.000026 0.000000 0.000000 0.000000 
-2.307654 86.054939 12.957191 0.000000 0.000000 0.000000 24.090118 0.192407 -5.220039 -79.258109 5.521460 -5.411407 71.762168 -6.367145 3.284471 4.892933 5.976503 4.344313 0.000000 0.000000 0.000000 24.090118 0.192407 -5.220039 -23.646509 -12.367651 1.784419 31.404558 -2.752648 1.465794 -31.172840 -1.855044 4.491155 0.000000 0.000000 0.000000 24.090118 0.192407 -5.220039 -0.000001 0.000000 0.000000 8.071148 3.376000 -1.759760 -0.542838 1.684604 -0.675692 0.000000 0.000000 0.000000 -0.447990 1.765198 -0.714383 -4.951946 0.177777 0.426867 0.000000 0.000000 0.000000 -0.447990 1.765198 -0.714383 0.892450 -1.054611 -19.190871 13.312130 -1.847645 -48.806944 0.000008 -65.962190 -0.000002 0.000000 0.000000 0.000000 -0.447990 1.765198 -0.714383 0.153492 8.439836 18.609349 12.697667 -10.683107 48.523078 0.000000 68.139401 -0.000005 0.000000 0.000000 0.000000 
-2.896282 85.470650 15.084804 0.000000 0.000000 0.000000 24.564058 0.137418 -4.870756 -81.740043 6.037308 -5.614449 69.906986 -7.253727 3.105986 2.944966 7.303912 3.750696 0.000000 0.000000 0.000000 24.564058 0.137418 -4.870756 -21.683603 -12.707981 2.179794 30.776894 -2.294498 1.118639 -33.047945 -1.886820 4.449145 0.000000 0.000000 0.000000 24.564058 0.137418 -4.870756 0.000000 0.000000 0.000000 7.836384 3.522414 -2.196563 -0.568899 1.769348 -0.638627 0.000000 0.000000 0.000000 -0.435521 1.881720 -0.687169 -4.972298 0.124594 0.446811 0.000000 0.000000 0.000000 -0.435521 1.881720 -0.687169 0.929824 -1.053953 -18.961348 13.400396 -1.835218 -48.895873 0.000017 -66.003581 0.000015 0.000000 0.000000 0.000000 -0.435521 1.881720 -0.687169 0.154264 8.583617 18.261954 13.151215 -10.954119 48.933087 0.000013 69.329248 -0.000031 0.000000 0.000000 0.000000 
-3.504682 84.843079 17.297693 0.000000 0.000000 0.000000 25.039091 0.033158 -4.523384 -83.736179 6.478242 -5.786699 67.247003 -7.961232 2.912081 1.354437 8.603520 3.242383 0.000000 0.000000 0.000000 25.039091 0.033158 -4.523384 -19.465494 -12.999686 2.597585 29.758728 -1.770487 0.816400 -34.709655 -1.923580 4.461585 0.000000 0.000000 0.000000 25.039091 0.033158 -4.523384 -0.000001 0.000000 0.000000 7.625338 3.665175 -2.646979 -0.598235 1.854912 -0.604954 0.000000 0.000000 0.000000 -0.424873 2.005181 -0.664212 -4.989774 0.073140 0.468489 0.000000 0.000000 0.000000 -0.424873 2.005181 -0.664212 0.969099 -1.053106 -18.719984 13.516208 -1.797123 -48.968041 -0.000004 -66.033763 -0.000015 0.000000 0.000000 0.000000 -0.424873 2.005181 -0.664212 0.157616 8.737058 17.903002 13.636100 -11.213137 49.411525 -0.000042 70.485845 0.000036 0.000000 0.000000 0.000000 
-4.146643 84.180183 19.669668 0.000000 0.000000 0.000000 25.488828 -0.152550 -4.191907 -85.187458 6.871241 -5.913930 63.857324 -8.433622 2.726649 0.102251 9.775574 2.845967 0.000000 0.000000 0.000000 25.488828 -0.152550 -4.191907 -16.780014 -13.174557 3.080353 28.070877 -1.176956 0.593197 -36.033988 -1.971234 4.548369 0.000000 0.000000 0.000000 25.488828 -0.152550 -4.191907 0.000001 0.000000 0.000000 7.459484 3.803485 -3.128400 -0.630488 1.941492 -0.566816 0.000000 0.000000 0.000000 -0.418073 2.143486 -0.637357 -5.002027 0.025533 0.493265 0.000000 0.000000 0.000000 -0.418073 2.143486 -0.637357 1.009353 -1.052064 -18.472580 13.644519 -1.734535 -49.032996 0.000001 -66.048599 0.000016 0.000000 0.000000 0.000000 -0.418073 2.143486 -0.637357 0.164063 8.890710 17.542924 14.136612 -11.451838 49.934690 0.000040 71.601023 -0.000030 0.000000 0.000000 0.000000 
-4.822640 83.501007 22.199852 0.000000 0.000000 0.000000 25.872552 -0.424857 -3.926883 -85.895995 7.604425 -5.636691 60.755919 -8.651194 2.196491 0.092470 10.329094 4.023401 0.000000 0.000000 0.000000 25.872552 -0.424857 -3.926883 -13.876072 -12.760897 3.550389 25.962435 -0.975912 0.543176 -36.698661 -2.165145 4.986453 0.000000 0.000000 0.000000 25.872552 -0.424857 -3.926883 0.000002 0.000000 0.000000 7.340117 3.945622 -3.618244 -0.664972 2.028179 -0.527943 0.000000 0.000000 0.000000 -0.415931 2.293458 -0.610946 -5.008985 -0.017556 0.521026 0.000000 0.000000 0.000000 -0.415931 2.293458 -0.610946 1.049657 -1.050843 -18.224943 13.770217 -1.648572 -49.100116 0.000014 -66.043988 0.000025 0.000000 0.000000 0.000000 -0.415931 2.293458 -0.610946 0.173697 9.035018 17.192194 14.637840 -11.663025 50.477902 0.000003 72.666574 0.000026 0.000000 0.000000 0.000000 
-5.481091 82.875313 24.842247 0.000000 0.000000 0.000000 26.144578 -0.774197 -3.757189 -86.008945 8.406610 -5.298632 56.692302 -8.567960 1.475555 1.000978 10.494365 5.861766 0.000000 0.000000 0.000000 26.144578 -0.774197 -3.757189 -10.773047 -12.359874 4.282147 23.531004 -1.059065 0.528058 -36.723257 -2.026269 4.795473 0.000000 0.000000 0.000000 26.144578 -0.774197 -3.757189 0.000000 0.000000 0.000000 7.246419 4.089068 -4.101303 -0.701034 2.114327 -0.489381 0.000000 0.000000 0.000000 -0.418506 2.448751 -0.585380 -5.013094 -0.057964 0.550339 0.000000 0.000000 0.000000 -0.418506 2.448751 -0.585380 1.089039 -1.049482 -17.982846 13.878161 -1.540402 -49.178564 -0.000012 -66.015684 -0.000008 0.000000 0.000000 0.000000 -0.418506 2.448751 -0.585380 0.186317 9.160370 16.861290 15.125990 -11.840691 51.015991 -0.000007 73.674348 0.000003 0.000000 0.000000 0.000000 
-6.096098 82.364334 27.505480 0.000000 0.000000 0.000000 26.319900 -1.161624 -3.658604 -85.792271 8.989766 -4.873153 54.203613 -8.467182 0.819852 1.018995 10.652810 7.548435 0.000000 0.000000 0.000000 26.319900 -1.161624 -3.658604 -7.360597 -12.243471 5.258353 20.407647 -1.093226 0.482178 -35.952459 -1.520538 3.895505 0.000000 0.000000 0.000000 26.319900 -1.161624 -3.658604 -0.000002 0.000000 0.000000 7.197466 4.211440 -4.573645 -0.738048 2.199289 -0.452094 0.000000 0.000000 0.000000 -0.428179 2.606426 -0.561724 -5.012907 -0.092626 0.581532 0.000000 0.000000 0.000000 -0.428179 2.606426 -0.561724 1.126593 -1.048034 -17.752090 13.953155 -1.411144 -49.277223 -0.000004 -65.959656 -0.000018 0.000000 0.000000 0.000000 -0.428179 2.606426 -0.561724 0.200929 9.256941 16.560639 15.588368 -11.980030 51.523177 -0.000004 74.616176 -0.000010 0.000000 0.000000 0.000000 
-6.645348 82.025627 30.251781 0.000000 0.000000 0.000000 26.371302 -1.592029 -3.668908 -85.211623 9.441238 -4.400860 52.318832 -8.388604 0.188464 0.534861 10.789360 9.220560 0.000000 0.000000 0.000000 26.371302 -1.592029 -3.668908 -4.862885 -12.712954 5.856543 18.781062 -0.320170 0.544356 -34.341491 -1.160089 2.929296 0.000000 0.000000 0.000000 26.371302 -1.592029 -3.668908 0.000000 0.000000 0.000000 7.254510 4.316083 -4.994754 -0.775317 2.282293 -0.418431 0.000000 0.000000 0.000000 -0.459480 2.765921 -0.542971 -5.002787 -0.112757 0.616721 0.000000 0.000000 0.000000 -0.459480 2.765921 -0.542971 1.161334 -1.046554 -17.538476 13.980003 -1.261843 -49.404739 0.000012 -65.871724 0.000022 0.000000 0.000000 0.000000 -0.459480 2.765921 -0.542971 0.216968 9.315089 16.300730 15.996624 -12.098372 51.969786 -0.000018 75.483890 0.000024 0.000000 0.000000 0.000000 
-7.129530 81.903107 33.011124 0.000000 0.000000 0.000000 26.328629 -2.021871 -3.736296 -83.917364 10.225352 -3.926223 50.993530 -8.395225 -0.433458 -3.285454 10.189515 11.916167 0.000000 0.000000 0.000000 26.328629 -2.021871 -3.736296 -4.002005 -13.637214 5.530935 19.784922 1.111037 0.760536 -32.232817 -1.368917 3.059346 0.000000 0.000000 0.000000 26.328629 -2.021871 -3.736296 0.000000 0.000000 0.000000 7.354984 4.383023 -5.385783 -0.812072 2.362466 -0.391802 0.000000 0.000000 0.000000 -0.504749 2.921647 -0.531383 -4.992798 -0.127204 0.653562 0.000000 0.000000 0.000000 -0.504749 2.921647 -0.531383 1.192348 -1.045129 -17.347755 13.943631 -1.093286 -49.569466 0.000019 -65.747681 0.000029 0.000000 0.000000 0.000000 -0.504749 2.921647 -0.531383 0.233606 9.325075 16.092003 16.386498 -12.134973 52.339285 -0.000013 76.269314 0.000007 0.000000 0.000000 0.000000 
